<?xml version="1.0" standalone="no"?>
<!DOCTYPE svg PUBLIC "-//W3C//DTD SVG 20010904//EN"
 "http://www.w3.org/TR/2001/REC-SVG-20010904/DTD/svg10.dtd">
<svg version="1.0" xmlns="http://www.w3.org/2000/svg"
 width="1000.000000pt" height="1000.000000pt" viewBox="0 0 1000.000000 1000.000000"
 preserveAspectRatio="xMidYMid meet">
<metadata>
Created by potrace 1.14, written by Peter Selinger 2001-2017
</metadata>
<g transform="translate(0.000000,1000.000000) scale(0.100000,-0.100000)"
fill="#000000" stroke="none">
<path d="M2847 5568 c-8 -4 -12 -36 -12 -95 l1 -88 112 -3 112 -3 2 -476 3
-476 95 1 c52 1 98 1 103 2 20 1 4 20 -18 20 -34 0 -22 28 13 32 24 3 27 7 27
43 0 39 -1 40 -34 40 -49 1 -52 23 -4 27 l38 3 0 393 0 392 86 0 87 0 0 -187
c1 -305 -3 -274 35 -272 52 3 64 0 64 -16 0 -11 -12 -15 -49 -15 -39 0 -48 -3
-49 -17 -3 -72 -1 -434 3 -438 10 -10 210 -8 217 3 5 9 6 28 2 130 -1 12 -7
22 -16 22 -13 0 -15 22 -15 140 0 156 -8 142 75 142 92 0 85 6 84 -74 0 -40 0
-78 0 -84 1 -7 18 -10 46 -8 l45 3 0 -129 0 -130 120 0 120 0 0 80 0 80 -58 0
c-51 0 -58 2 -59 20 -2 17 4 20 38 20 l40 0 -3 138 -3 137 -57 0 c-61 0 -74 6
-65 30 4 10 20 15 46 15 32 0 44 5 57 25 34 53 52 137 52 250 -1 230 -69 312
-268 322 -150 7 -1001 8 -1013 1z m985 -187 c15 -1 38 -11 53 -23 22 -20 26
-33 31 -100 l5 -78 -28 -1 c-15 -1 -43 0 -61 1 -30 1 -33 -1 -30 -22 3 -20 8
-23 51 -23 38 1 47 -2 47 -17 0 -33 -45 -51 -133 -52 l-82 -1 -1 157 c-2 176
-7 165 76 161 25 -1 57 -2 72 -2z m158 -221 c6 -11 7 -20 3 -21 -63 -7 -83 -5
-83 11 0 22 3 25 39 27 22 2 34 -4 41 -17z"/>
<path d="M8095 5571 c-2 -2 -146 -3 -319 -4 -217 0 -316 -4 -319 -11 -2 -6 -3
-118 -2 -248 l1 -238 -43 0 -43 0 -1 73 c-2 183 -45 304 -128 361 -70 49 -133
64 -256 62 -103 -1 -115 -3 -175 -33 -80 -40 -125 -97 -153 -191 -16 -56 -20
-107 -24 -302 -2 -144 -8 -237 -14 -241 -6 -3 -27 -4 -46 -2 -40 4 -52 -7 -46
-40 4 -21 10 -23 74 -23 l69 0 0 33 c0 29 3 32 27 30 24 -2 28 -7 28 -32 0
-19 -5 -30 -15 -31 -41 -3 -41 -3 -38 -61 l3 -58 47 2 47 2 -1 -72 c-1 -68 0
-72 23 -77 15 -4 23 -12 21 -23 -2 -9 1 -17 5 -18 4 0 92 -1 196 -2 192 -2
194 -2 188 36 0 4 25 7 57 7 l58 0 -1 72 c0 51 4 73 13 74 6 1 19 2 27 3 13 1
15 31 15 206 l0 205 70 0 c40 0 70 4 70 10 0 6 5 10 10 10 6 0 10 -7 10 -15 0
-9 -9 -15 -24 -15 l-23 0 0 -196 c0 -153 -3 -198 -13 -204 -8 -5 -14 -29 -15
-59 -1 -50 -1 -51 27 -51 18 0 28 -5 28 -15 0 -10 -10 -15 -29 -15 -24 0 -29
-4 -26 -20 2 -11 6 -24 9 -28 6 -10 84 -5 100 6 6 4 35 7 64 7 39 0 52 4 53
15 1 8 1 72 1 143 1 86 4 127 12 128 6 0 30 1 54 1 23 0 42 4 42 9 0 11 -107
12 -114 0 -3 -4 -26 -8 -51 -8 -25 0 -45 4 -45 8 0 5 23 9 50 9 28 0 50 3 51
8 7 66 3 92 -13 92 -10 0 -18 5 -18 10 0 10 30 14 83 10 21 -1 27 3 27 19 0
20 5 21 105 21 63 0 105 4 105 10 0 6 0 13 0 18 0 4 -6 7 -12 7 -15 0 -18 51
-6 78 5 10 13 15 19 12 5 -4 9 12 9 35 0 33 -3 41 -17 39 -10 -1 -77 -1 -149
0 l-131 1 0 133 0 133 268 2 269 3 0 -476 c0 -310 3 -475 10 -476 6 0 39 0 75
0 114 0 125 1 125 10 0 5 -10 11 -22 13 -31 4 -25 22 9 28 25 4 28 9 28 45 0
37 2 40 30 41 17 1 40 2 53 3 12 0 22 6 22 11 0 15 -99 12 -115 -3 -16 -16
-57 -15 -63 1 -2 6 13 12 35 14 l38 3 0 393 0 392 111 0 110 0 1 95 0 95 -31
1 c-125 3 -538 3 -541 0z m-1000 -222 c13 -13 27 -37 31 -54 4 -16 9 -162 11
-322 l5 -293 -46 0 c-44 0 -46 -1 -46 -30 l0 -30 -95 0 -96 0 2 193 c0 105 0
198 0 205 -1 7 -16 12 -40 12 -24 0 -41 5 -44 14 -8 20 2 26 45 26 21 0 38 3
39 8 0 4 2 51 4 105 7 159 39 201 148 194 45 -3 63 -9 82 -28z m275 -299 c0
-17 -7 -20 -39 -20 -24 0 -41 5 -44 14 -8 20 2 26 45 26 31 0 38 -3 38 -20z"/>
<path d="M1333 5261 l-1 -311 54 0 c53 0 54 0 54 -30 0 -30 -1 -30 -53 -30
l-53 0 0 -195 c1 -149 4 -195 14 -195 7 0 12 -14 12 -35 0 -36 1 -37 60 -37
17 0 50 1 75 1 l45 1 0 68 c0 37 -6 74 -13 83 -16 21 -15 173 2 175 6 1 15 2
20 3 5 0 9 18 9 39 0 20 1 42 1 49 1 8 35 11 115 11 121 0 138 4 135 30 -3 37
1 39 91 38 52 -1 91 3 93 9 2 6 2 33 1 62 -1 40 2 50 12 46 8 -3 14 -13 15
-22 0 -12 2 -11 8 4 7 16 4 21 -13 25 -15 4 -21 14 -21 35 l0 30 80 3 c80 3
96 10 88 41 -3 14 -18 16 -81 16 l-77 0 -7 87 c-9 124 -30 179 -85 228 -73 64
-116 73 -364 78 l-216 4 0 -311z m405 100 c12 -6 27 -21 33 -33 15 -27 19
-141 6 -189 l-9 -38 -72 -3 c-68 -3 -71 -4 -69 -26 3 -21 -1 -23 -34 -20 l-37
3 1 140 c1 77 1 150 2 161 1 20 5 21 80 19 43 -2 88 -8 99 -14z m256 -204 c-1
-9 -2 -21 -3 -27 0 -5 -21 -10 -46 -10 -43 0 -45 1 -43 28 2 26 5 28 47 27 37
0 46 -4 45 -18z"/>
<path d="M2220 5282 l0 -283 40 4 c26 3 44 -1 51 -9 9 -12 2 -14 -40 -14 l-51
0 0 -75 c0 -53 3 -74 12 -73 9 2 12 -46 12 -199 l1 -203 30 -1 c16 0 52 -1 79
-2 31 -1 50 3 53 11 4 9 49 12 179 12 l174 0 0 75 c0 41 3 74 8 72 4 -1 8 3
10 8 1 6 -53 11 -143 13 l-145 3 0 34 c0 33 -2 35 -35 35 -19 0 -35 5 -35 10
0 9 28 15 57 11 9 -1 13 31 15 116 l3 118 122 0 c67 1 124 3 127 5 2 3 2 44
-1 92 l-6 87 -126 0 c-69 0 -135 0 -147 0 -20 1 -21 6 -20 121 0 101 2 120 15
121 9 0 84 2 166 2 l150 2 0 95 0 95 -277 0 -278 0 0 -283z"/>
<path d="M4451 5549 c-121 -39 -193 -143 -208 -302 -4 -40 -7 -156 -7 -259 0
-121 -4 -188 -11 -189 -5 -1 -28 -2 -50 -3 -37 -1 -40 -3 -43 -32 l-3 -30 71
0 70 0 0 32 c0 28 3 31 30 32 28 1 30 -2 30 -33 0 -31 -3 -34 -27 -32 -27 2
-28 0 -31 -55 -3 -63 -3 -63 71 -58 l27 2 0 -76 c0 -74 1 -76 24 -76 17 0 26
-6 28 -21 3 -21 7 -21 193 -22 137 0 190 3 191 11 1 7 2 17 3 22 0 6 25 10 55
10 l54 0 0 58 c0 92 0 91 27 87 14 -1 25 3 26 9 0 6 1 100 2 209 l2 197 -42 0
c-37 0 -43 3 -43 21 0 18 5 20 43 17 29 -2 42 -8 42 -18 0 -11 14 -16 50 -20
l50 -5 1 -220 c0 -176 2 -219 13 -217 27 6 36 -17 35 -87 0 -45 3 -71 10 -71
6 -1 120 -2 254 -3 273 -2 245 -12 244 81 0 46 -2 44 76 45 l42 1 0 86 0 87
28 -1 c20 -1 28 4 30 20 3 18 10 21 38 21 35 -1 38 -5 28 -30 -3 -9 -16 -13
-35 -11 l-30 4 3 -62 3 -62 50 -2 c28 -1 53 -2 58 -3 4 0 7 -39 7 -86 l0 -85
33 -1 c33 -1 332 -1 425 0 l52 1 2 93 c0 50 3 77 5 59 3 -25 9 -32 21 -30 11
2 16 11 14 26 -2 12 3 24 10 27 11 4 13 40 12 168 -2 192 0 177 -19 177 -8 0
-15 6 -15 14 0 20 -14 23 -143 21 -77 0 -116 3 -114 10 2 5 35 11 73 12 38 1
80 2 94 2 23 1 23 2 -12 26 -20 13 -84 47 -142 74 -138 65 -166 92 -166 165 0
47 17 81 47 95 31 14 105 14 136 0 29 -13 57 -58 57 -93 0 -24 2 -25 53 -21
28 2 69 5 90 7 l39 2 -5 46 c-19 175 -126 264 -310 259 -221 -6 -317 -94 -317
-294 0 -71 4 -90 30 -143 17 -33 47 -75 66 -91 19 -17 31 -31 27 -32 -4 -1
-24 -2 -43 -3 -19 0 -36 -5 -37 -11 -2 -6 35 -10 96 -10 55 0 102 -3 106 -7 3
-3 6 -24 7 -47 l0 -41 89 0 89 0 0 -60 c0 -41 -4 -60 -12 -60 -10 0 -10 -2 0
-9 9 -5 12 -29 10 -82 l-3 -74 -113 0 c-129 -1 -121 -7 -119 103 1 41 -2 77
-7 80 -20 12 -208 8 -221 -4 -12 -12 -29 -17 -52 -15 -7 0 -13 12 -13 26 0 23
-4 25 -40 25 -36 0 -40 2 -40 26 0 18 5 25 18 23 9 -1 27 -1 40 0 l22 1 0 350
0 350 -110 0 -110 0 0 -375 0 -374 -27 2 -28 2 -3 -103 -3 -103 -61 6 c-104 9
-124 41 -127 210 l-2 100 58 0 c67 -1 74 1 67 19 -4 9 -22 14 -52 14 -26 0
-53 0 -59 1 -10 1 -13 68 -13 301 l0 300 -110 0 -110 0 -1 -77 c0 -43 0 -156
-1 -250 l0 -173 -43 0 -43 0 -1 73 c-4 240 -56 343 -201 402 -68 28 -236 30
-319 4z m216 -180 c42 -14 60 -51 68 -138 5 -49 9 -473 6 -533 -1 -14 -10 -18
-46 -18 -43 0 -44 -1 -40 -30 l4 -31 -97 3 -97 3 1 203 0 202 -43 0 c-36 0
-43 3 -43 20 0 17 7 20 43 20 l42 0 3 83 c3 120 18 183 49 205 30 22 101 27
150 11z m611 -418 c-2 -12 -15 -16 -48 -17 -54 0 -64 4 -50 20 5 7 31 13 55
13 37 0 45 -3 43 -16z m1189 -363 c-3 -8 -6 -5 -6 6 -1 11 2 17 5 13 3 -3 4
-12 1 -19z"/>
<path d="M2010 5101 c0 -3 4 -12 9 -19 6 -11 9 -9 13 5 3 12 0 20 -8 20 -8 0
-14 -3 -14 -6z"/>
<path d="M2035 4993 c-3 -10 19 -13 90 -13 57 0 95 4 95 10 0 12 4 12 -97 13
-58 2 -84 -2 -88 -10z"/>
<path d="M6470 4996 c0 -10 12 -14 40 -13 26 1 40 6 40 14 0 9 -14 13 -40 13
-28 0 -40 -4 -40 -14z"/>
<path d="M6240 4744 c0 -15 3 -23 8 -18 4 5 10 11 13 14 4 3 1 11 -7 18 -12
11 -14 8 -14 -14z"/>
<path d="M6245 4693 c3 -8 5 -18 5 -21 0 -8 20 20 20 29 0 3 -7 6 -15 6 -10 0
-14 -6 -10 -14z"/>
<path d="M6230 4641 c0 -6 0 -14 0 -18 0 -5 9 -9 20 -9 13 -1 20 5 20 17 0 11
-5 19 -11 19 -5 0 -7 -6 -3 -12 5 -9 2 -9 -9 1 -11 9 -17 10 -17 2z"/>
<path d="M3282 4578 c6 -16 96 -17 102 -1 4 10 -9 13 -50 13 -38 0 -54 -4 -52
-12z"/>
<path d="M6450 4521 c0 -11 6 -18 15 -17 24 3 25 11 5 24 -17 10 -20 10 -20
-7z"/>
</g>
</svg>
